<?xml version="1.0" standalone="no"?>
<!DOCTYPE svg PUBLIC "-//W3C//DTD SVG 20010904//EN"
 "http://www.w3.org/TR/2001/REC-SVG-20010904/DTD/svg10.dtd">
<svg version="1.0" xmlns="http://www.w3.org/2000/svg"
 width="919.000000pt" height="919.000000pt" viewBox="0 0 919.000000 919.000000"
 preserveAspectRatio="xMidYMid meet">
<metadata>
Created by potrace 1.11, written by Peter Selinger 2001-2013
</metadata>
<g transform="translate(0.000000,919.000000) scale(0.100000,-0.100000)"
fill="#000000" stroke="none">
<path d="M6874 7740 c-36 -14 -67 -137 -40 -159 12 -10 17 -9 26 6 11 17 11
16 5 -2 -4 -11 -9 -38 -12 -60 -3 -22 -12 -43 -19 -48 -19 -11 -7 -34 29 -56
62 -38 76 -58 70 -95 -4 -28 -1 -36 16 -45 12 -7 21 -22 21 -34 0 -12 9 -30
20 -40 12 -10 20 -29 20 -49 0 -17 7 -39 16 -49 16 -18 22 -37 23 -77 1 -15
12 -29 32 -40 17 -9 47 -27 67 -40 51 -34 85 -25 337 89 72 32 150 61 175 64
25 3 63 7 85 10 22 3 90 30 150 59 132 66 141 69 165 56 24 -13 27 3 23 121
-3 81 -1 100 13 114 27 26 29 199 3 242 -11 17 -25 33 -32 36 -23 9 -1171 6
-1193 -3z"/>
<path d="M2427 7523 c-2 -1 -41 -3 -89 -4 -66 -1 -102 -8 -150 -27 -84 -34
-152 -78 -174 -116 -27 -46 -24 -129 6 -190 27 -54 36 -59 134 -70 32 -3 61
-8 65 -10 24 -15 142 -22 194 -10 17 3 34 1 44 -7 11 -10 54 -14 139 -16 116
-1 171 -13 159 -33 -12 -19 -135 -52 -167 -44 -18 4 -64 8 -103 9 -38 1 -97 5
-130 9 -33 4 -80 9 -105 11 -83 7 -113 16 -154 45 -24 19 -52 30 -72 30 -17 0
-48 7 -69 16 -20 8 -42 13 -48 11 -5 -1 -11 -27 -12 -56 -2 -41 2 -54 16 -61
23 -13 59 -13 59 0 0 6 5 10 10 10 6 0 10 -9 10 -20 0 -13 11 -25 34 -34 28
-12 43 -32 89 -121 72 -137 80 -162 81 -261 1 -81 13 -114 41 -114 7 0 24 -15
38 -33 25 -33 26 -33 84 -26 67 8 186 62 238 108 19 17 49 38 66 46 28 15 69
85 69 118 0 7 10 28 22 47 13 22 22 53 22 85 2 80 73 172 92 120 13 -33 64 41
63 92 0 15 -1 78 -3 139 l-2 111 -45 53 c-49 59 -156 133 -240 167 -37 15 -82
24 -133 26 -42 1 -78 2 -79 0z m-117 -175 c57 -17 93 -39 83 -49 -29 -29 -157
-20 -199 13 l-27 22 22 17 c23 19 49 18 121 -3z m402 -56 c9 -9 4 -13 -20 -18
-38 -8 -41 -21 -8 -34 34 -13 42 -30 14 -31 -13 0 -43 -3 -68 -6 -89 -13 -414
-4 -440 12 -40 25 31 38 210 38 74 0 127 2 117 4 -23 6 -17 24 14 41 29 16
164 11 181 -6z m-389 -319 c26 -18 54 -28 84 -29 58 -3 93 -12 93 -23 0 -10
-256 -5 -272 5 -14 9 -9 24 17 49 30 31 30 31 78 -2z"/>
<path d="M8824 6663 c-22 -52 -72 -102 -108 -108 -17 -2 -87 -12 -156 -22
-103 -14 -129 -21 -146 -39 -25 -26 -69 -24 -119 6 -36 22 -103 20 -161 -5
-38 -16 -83 -19 -189 -10 -27 2 -116 7 -197 11 -143 7 -148 6 -195 -18 -51
-26 -94 -28 -163 -6 -19 6 -81 12 -138 13 -56 1 -106 5 -110 11 -5 5 -14 28
-21 52 l-12 44 -52 -6 c-29 -3 -77 -10 -107 -16 -30 -6 -77 -13 -105 -16 -53
-7 -98 -26 -183 -81 -30 -19 -68 -37 -85 -40 -43 -8 -87 -31 -88 -46 -4 -40
-3 -65 3 -92 4 -16 9 -71 12 -121 4 -86 2 -95 -26 -153 -16 -33 -34 -61 -38
-61 -5 0 -14 -17 -21 -37 -6 -21 -23 -59 -36 -84 -13 -26 -26 -60 -29 -75 -11
-65 -27 -95 -67 -125 -60 -46 -84 -73 -111 -121 -67 -123 -108 -194 -116 -202
-13 -13 -50 -1 -102 34 -26 17 -63 34 -83 37 -32 5 -40 2 -59 -22 -25 -31 -59
-35 -119 -16 -18 6 -75 18 -127 26 -52 9 -108 18 -125 21 -16 3 -65 15 -109
26 -69 18 -91 20 -185 12 -212 -17 -560 -10 -751 16 -65 8 -228 6 -285 -4
-103 -18 -116 -16 -163 30 -24 25 -55 47 -68 50 -22 6 -34 24 -16 24 25 1 67
68 44 71 -4 0 -27 2 -52 3 -25 2 -58 8 -73 15 -41 16 -66 14 -153 -15 -163
-54 -432 -209 -601 -346 -39 -32 -76 -58 -81 -58 -6 0 -23 -5 -37 -10 -23 -9
-25 -13 -15 -25 13 -16 9 -18 -32 -15 -17 1 -28 -4 -29 -12 -1 -7 -2 -19 -3
-27 -2 -21 -52 -55 -70 -48 -24 9 -19 50 8 76 15 14 22 29 19 42 -3 11 2 38
12 59 21 47 104 140 124 140 8 0 26 11 40 24 31 28 172 106 193 106 8 0 23 9
33 20 10 11 23 20 28 20 5 0 24 13 41 30 17 16 42 38 56 49 14 10 22 22 18 26
-13 14 -54 -4 -90 -39 -19 -19 -62 -44 -97 -56 -43 -16 -71 -34 -93 -61 -17
-20 -49 -45 -71 -55 -39 -18 -39 -18 -91 9 -28 15 -60 35 -71 43 -20 16 -20
16 7 37 16 11 52 31 80 43 37 15 53 28 53 41 0 29 -72 41 -235 36 -113 -3
-149 -1 -164 10 -18 13 -17 15 10 34 29 20 89 50 186 92 89 37 47 82 -76 83
-60 0 -85 -5 -119 -23 -34 -18 -62 -23 -152 -26 -60 -2 -125 -4 -144 -5 -40
-2 -61 21 -61 67 0 31 25 65 47 65 6 0 31 -9 56 -20 38 -17 61 -19 150 -16 57
2 111 7 118 11 8 5 37 23 64 41 28 17 76 38 108 45 l58 12 -32 29 c-17 16 -29
35 -25 43 8 21 -67 42 -94 25 -12 -8 -13 -13 -3 -29 11 -18 10 -23 -14 -38
-36 -24 -92 -20 -139 9 -35 22 -95 30 -111 14 -3 -2 -22 2 -43 9 -37 13 -40
13 -76 -16 -20 -16 -44 -30 -53 -31 -9 0 -23 -2 -31 -3 -8 -1 -40 11 -71 27
-35 18 -77 30 -115 33 -91 7 -142 24 -169 57 -14 16 -25 38 -25 47 0 21 -43
67 -68 73 -17 5 -99 -28 -132 -53 -12 -8 -25 -7 -54 5 -32 13 -36 19 -31 38 4
13 16 32 26 44 11 11 19 23 19 26 0 14 -53 -8 -86 -36 -36 -31 -37 -33 -25
-69 7 -20 17 -37 21 -37 24 0 46 -90 30 -120 -5 -9 -37 -27 -72 -39 -35 -12
-76 -28 -93 -36 -16 -8 -74 -25 -127 -40 -93 -24 -100 -25 -129 -9 l-31 16
-49 -48 c-43 -43 -48 -51 -43 -81 7 -43 -10 -64 -45 -59 -14 3 -56 7 -94 11
-39 3 -89 16 -120 30 -28 14 -59 25 -68 25 -8 0 -23 6 -33 13 -18 13 -17 15 9
39 l27 26 -23 7 c-34 11 -216 9 -268 -3 -24 -6 -58 -8 -76 -5 -18 3 -59 -2
-91 -12 -179 -52 -221 -104 -146 -181 68 -68 113 -105 215 -174 l107 -73 83 6
c105 6 179 34 287 108 47 32 103 66 125 75 69 29 259 96 285 100 41 8 62 15
137 50 39 19 109 45 156 58 101 29 121 38 257 105 58 29 119 53 136 53 44 1
135 -43 187 -91 45 -42 75 -85 167 -236 27 -44 55 -87 63 -95 7 -8 30 -43 51
-77 24 -40 57 -78 94 -106 67 -50 90 -84 166 -232 50 -99 62 -114 109 -145
l52 -35 0 -115 c-1 -95 -5 -126 -24 -175 -22 -58 -24 -80 -19 -225 1 -30 0
-77 -3 -105 -4 -48 -3 -51 29 -65 38 -18 39 -22 47 -162 3 -59 9 -118 14 -132
6 -13 13 -62 16 -108 14 -194 34 -256 138 -428 28 -47 81 -143 117 -215 110
-216 170 -314 231 -382 55 -61 117 -171 132 -234 4 -14 9 -68 12 -120 l6 -94
-95 -62 c-52 -35 -98 -63 -101 -63 -20 0 -105 -90 -105 -111 0 -3 20 -6 44 -6
53 0 63 -6 80 -48 16 -37 -3 -35 191 -20 116 8 128 10 154 25 16 8 72 13 158
15 117 1 136 4 153 21 35 35 33 76 -4 151 -19 37 -37 83 -41 102 -4 19 -20 65
-36 101 -42 100 -52 151 -54 300 -2 74 -5 149 -8 165 -3 17 -11 63 -17 102 -7
44 -21 87 -35 108 -13 19 -27 51 -31 71 -4 21 -30 72 -59 113 -28 42 -73 107
-100 146 -61 88 -85 140 -85 186 0 89 104 304 276 566 19 28 34 54 34 57 0 6
31 44 58 72 6 7 12 22 12 34 0 12 4 29 10 39 5 10 10 37 11 60 3 46 12 56 104
118 62 42 82 48 200 59 98 8 152 44 140 92 -20 81 -19 91 17 125 56 52 145 94
238 111 115 21 304 43 445 51 79 5 131 10 210 21 88 12 171 12 200 -1 40 -18
100 -33 160 -39 28 -3 73 -9 100 -12 63 -7 158 -53 161 -77 5 -40 -44 -53
-231 -61 -128 -6 -151 -15 -158 -68 -4 -26 -16 -51 -36 -72 -34 -35 -50 -72
-57 -131 -3 -22 -7 -45 -9 -52 -17 -51 200 -158 363 -179 20 -2 47 -6 61 -8
14 -3 53 -7 87 -11 58 -6 63 -5 105 27 26 20 72 76 114 139 39 57 89 129 111
159 23 30 45 66 49 80 4 14 12 30 17 37 5 6 17 52 27 101 20 100 6 80 196 276
169 174 301 358 358 501 16 39 35 84 42 100 18 37 45 145 45 176 0 34 14 51
43 54 22 3 29 -4 46 -38 24 -50 51 -155 53 -200 0 -17 -10 -70 -22 -117 -12
-47 -24 -96 -26 -110 -3 -14 -7 -31 -10 -39 -2 -8 -7 -30 -10 -50 -7 -46 -40
-121 -53 -121 -20 0 -28 -54 -30 -197 -1 -62 -1 -62 -46 -93 -25 -17 -45 -39
-45 -49 0 -10 -14 -29 -32 -42 -63 -47 -169 -165 -190 -212 -17 -36 -35 -56
-80 -85 -33 -21 -61 -48 -67 -62 -4 -14 -91 -109 -192 -211 -167 -169 -188
-187 -232 -198 -26 -6 -45 -16 -42 -21 5 -9 34 -7 140 11 43 7 78 7 125 -2 36
-6 84 -14 107 -16 52 -6 58 -21 39 -87 -9 -28 -25 -85 -37 -126 -12 -41 -23
-109 -25 -150 -1 -41 -3 -95 -4 -120 -1 -25 2 -57 5 -72 11 -44 -3 -90 -40
-133 -41 -47 -50 -81 -48 -190 4 -171 17 -194 79 -134 31 30 35 31 63 19 18
-7 38 -28 51 -51 l20 -40 -25 -23 c-14 -13 -39 -29 -55 -36 -16 -7 -32 -20
-35 -31 -7 -20 -88 -83 -122 -93 -62 -19 -89 -143 -92 -421 -5 -351 -10 -410
-46 -471 -14 -23 -25 -47 -25 -53 0 -10 -6 -18 -52 -73 -22 -26 -22 -31 -2
-99 9 -30 18 -61 19 -69 4 -24 -25 -50 -56 -50 -18 0 -32 -7 -39 -19 -14 -27
1 -30 89 -14 100 17 172 53 191 95 12 27 24 35 65 45 41 11 52 10 65 -2 20
-18 40 -19 41 -2 1 6 1 39 0 72 -3 102 47 299 96 385 14 25 56 88 92 140 106
150 150 223 155 255 3 17 15 66 27 110 16 60 22 114 23 215 2 97 7 145 18 170
9 19 19 52 22 72 5 32 27 59 145 175 95 95 157 165 195 225 31 47 56 90 56 96
0 5 33 43 73 84 54 57 83 79 112 86 22 6 59 15 82 21 23 7 68 14 100 17 76 7
122 31 144 74 26 51 37 60 67 60 35 0 131 -45 138 -64 3 -8 28 -22 56 -32 41
-13 57 -26 95 -78 53 -71 82 -127 113 -215 38 -107 135 -303 182 -367 25 -33
72 -84 105 -112 56 -49 60 -55 61 -100 2 -64 12 -211 16 -242 2 -14 7 -49 11
-79 7 -64 13 -75 71 -150 26 -34 54 -86 69 -130 13 -40 44 -108 69 -150 90
-156 114 -233 120 -384 2 -59 6 -111 10 -114 3 -3 12 0 20 6 15 13 25 57 28
134 1 26 7 52 14 58 18 15 52 2 84 -31 16 -16 32 -25 39 -21 30 19 52 214 51
456 0 28 0 61 0 75 0 14 4 58 8 99 18 154 3 311 -29 311 -5 0 -15 -11 -21 -25
-7 -15 -34 -35 -73 -54 -53 -24 -69 -28 -104 -21 -23 4 -54 19 -69 33 -24 23
-29 24 -46 11 -47 -34 -80 -1 -65 66 9 40 6 65 -15 125 -8 21 -13 50 -11 63 2
18 -5 29 -26 41 -24 13 -29 23 -29 53 0 20 5 40 11 43 11 7 8 73 -5 93 -3 6 5
22 18 37 18 19 37 27 77 31 82 9 79 3 54 96 -24 85 -37 201 -38 343 -1 115 9
164 44 214 44 63 46 140 8 252 -16 45 -29 92 -29 105 0 12 -7 25 -16 28 -14 5
-15 18 -10 84 3 42 9 87 12 100 8 28 -18 30 -52 3 -13 -11 -36 -18 -49 -16
-41 4 -52 -21 -25 -57 19 -26 21 -34 10 -51 -10 -18 -8 -23 19 -44 17 -14 31
-33 31 -43 0 -10 7 -20 15 -24 23 -8 18 -28 -5 -21 -11 3 -54 -3 -96 -15 -72
-19 -77 -20 -105 -3 -26 15 -33 16 -62 4 -17 -8 -45 -14 -62 -15 -24 -1 -31 4
-33 21 -3 19 -7 21 -22 13 -11 -6 -21 -6 -24 -1 -3 5 26 25 64 45 77 41 85 40
133 -13 42 -48 107 -39 107 14 0 32 -48 54 -131 59 -215 14 -310 24 -323 35
-11 9 -24 7 -62 -11 -68 -32 -69 -56 -5 -86 44 -20 90 -66 78 -78 -3 -3 -21 4
-41 14 -44 24 -105 21 -151 -8 -18 -11 -52 -22 -75 -25 -24 -3 -49 -10 -54
-14 -6 -5 -26 -12 -43 -16 -26 -5 -33 -3 -33 9 0 9 -8 17 -17 17 -95 6 -140
-28 -107 -79 44 -69 127 -109 121 -60 -1 15 6 26 26 36 15 7 32 10 37 7 14 -9
-17 -65 -35 -65 -8 0 -15 -6 -15 -14 0 -8 -13 -25 -29 -38 -16 -13 -38 -41
-49 -63 -21 -42 -46 -68 -74 -78 -20 -7 -25 17 -9 43 7 10 2 19 -20 32 -49 30
-34 56 20 35 31 -11 34 -10 63 22 30 33 28 44 -7 51 -36 7 -89 45 -98 71 -15
38 -28 37 -68 -5 -27 -29 -34 -32 -45 -21 -20 20 -18 25 16 36 33 12 37 24 16
51 -21 28 -57 37 -86 23 -29 -15 -74 -9 -91 11 -6 8 -19 29 -29 47 -20 38 -62
61 -96 53 -30 -8 -30 -23 -3 -87 12 -27 19 -52 16 -56 -6 -5 -40 27 -84 81
-28 34 -61 33 -91 -1 l-23 -28 5 107 c5 113 28 186 75 236 25 26 37 28 45 7 8
-21 28 -19 55 6 30 28 15 46 -27 31 -17 -6 -33 -8 -36 -5 -28 28 67 210 136
261 9 7 15 19 12 27 -4 10 3 18 21 25 23 9 25 13 15 25 -11 13 -7 15 27 15 32
0 42 5 51 24 10 22 8 24 -29 35 -21 7 -39 15 -39 20 0 15 35 39 67 46 29 6 33
4 39 -19 7 -31 13 -32 64 -6 46 23 49 34 18 67 l-21 23 31 1 c102 3 162 0 162
-9 0 -5 -18 -16 -40 -25 -37 -14 -52 -38 -32 -51 5 -3 6 -26 2 -51 -11 -70 35
-129 99 -130 18 0 27 -7 31 -24 3 -14 10 -26 16 -28 23 -8 120 108 110 132 -9
24 -29 18 -66 -20 -20 -21 -44 -35 -58 -35 -21 0 -24 4 -19 27 4 22 -2 33 -29
58 -19 17 -34 38 -34 46 0 8 25 24 60 38 50 20 58 26 50 41 -5 10 -6 20 -3 24
11 11 33 6 33 -7 0 -7 20 -42 45 -78 25 -35 45 -69 45 -76 0 -16 15 -24 33
-17 24 9 30 53 12 81 -9 13 -14 31 -11 39 5 13 9 12 30 -1 19 -13 29 -14 45
-5 30 16 47 50 30 61 -10 6 -6 9 12 9 36 0 44 -32 18 -73 -10 -18 -19 -44 -19
-59 0 -15 -4 -30 -10 -33 -5 -3 -10 -13 -10 -21 0 -11 9 -12 38 -8 51 8 54 11
50 52 -2 32 0 36 26 43 52 14 58 43 21 87 -14 17 -25 32 -25 36 0 3 24 5 53 4
28 0 59 1 67 3 25 7 12 -43 -18 -68 l-27 -23 28 -23 c35 -30 34 -37 -5 -37
-51 0 -63 -13 -60 -62 5 -74 21 -113 62 -156 37 -40 72 -53 84 -33 12 19 -14
60 -58 92 -55 39 -63 78 -20 105 25 17 28 16 79 -12 43 -23 57 -26 66 -17 10
10 9 17 -6 33 -17 19 -17 20 0 26 10 4 32 2 49 -4 50 -18 58 -16 54 20 -2 26
-9 33 -34 40 -16 4 -41 20 -55 34 l-24 27 28 -7 c15 -3 38 -9 51 -12 18 -5 30
0 47 20 15 17 29 24 40 21 10 -4 30 1 44 11 26 17 34 49 13 56 -16 6 7 110 69
313 45 148 84 239 142 331 17 26 45 81 62 123 17 42 47 108 65 147 34 74 48
122 59 210 5 46 4 51 -19 64 -14 7 -35 33 -47 57 -11 24 -30 48 -40 54 -17 9
-22 5 -35 -28z m-1637 -225 c29 -18 52 -37 50 -43 -5 -14 -132 -15 -181 -1
-54 16 -56 33 -4 56 58 27 73 25 135 -12z m-6940 -528 c-20 -11 -52 -20 -69
-19 -32 0 -33 0 -8 11 14 5 36 12 50 14 13 3 27 7 29 10 2 2 11 4 20 4 9 0 -1
-9 -22 -20z m221 -12 c3 -17 -30 -32 -93 -44 -60 -10 -147 -12 -170 -4 -18 6
-17 8 12 23 45 24 193 55 223 47 14 -4 26 -13 28 -22z m3334 -358 c18 -8 14
-9 -22 -5 -25 3 -49 11 -55 16 -12 12 41 4 77 -11z m-296 -32 c7 -12 -111
-127 -132 -128 -16 0 -55 40 -49 51 4 5 14 9 24 9 10 0 24 7 32 16 12 14 96
63 111 64 4 0 10 -5 14 -12z m4984 -128 c0 -5 -14 -10 -31 -10 -17 0 -28 4
-24 10 3 6 17 10 31 10 13 0 24 -4 24 -10z m-140 -25 c0 -7 -7 -16 -15 -19
-20 -7 -33 23 -14 34 16 10 29 4 29 -15z m-5636 -210 c-4 -8 -11 -12 -16 -9
-6 4 -5 10 3 15 19 12 19 11 13 -6z m4034 -246 c47 -16 50 -43 9 -87 -19 -20
-53 -56 -74 -80 -28 -31 -44 -41 -56 -36 -20 7 -23 24 -4 24 23 0 127 127 127
155 0 17 -23 20 -51 5 -21 -12 -26 -1 -7 18 15 15 17 15 56 1z m-102 -84 c-9
-14 -21 -25 -27 -25 -6 0 -1 14 11 31 26 36 40 31 16 -6z m209 25 l27 -10 -34
-42 c-18 -24 -40 -50 -48 -59 -8 -9 -28 -33 -43 -53 -26 -34 -57 -48 -57 -26
0 6 11 23 24 38 79 89 105 126 96 137 -6 7 -7 15 -3 18 8 9 7 9 38 -3z m-1246
-191 c36 -13 59 -44 37 -52 -7 -3 -29 -4 -49 -2 -71 7 -99 41 -46 56 13 4 24
7 25 8 1 1 15 -4 33 -10z m801 -244 c0 -35 -29 -73 -60 -77 -38 -6 -103 4
-104 15 -1 5 23 17 52 26 30 10 61 26 70 35 21 20 42 21 42 1z m626 -37 c4
-13 25 -41 48 -63 23 -22 50 -53 61 -68 15 -20 35 -31 78 -41 52 -12 60 -12
93 6 37 20 68 17 78 -7 5 -15 -15 -32 -77 -65 -18 -9 -42 -32 -55 -50 -21 -31
-21 -34 -6 -52 22 -23 84 -25 84 -2 0 20 63 84 82 84 15 -1 88 -66 88 -79 0
-5 -21 -17 -47 -27 -35 -14 -75 -18 -153 -18 -152 0 -393 15 -404 25 -5 5 1
24 17 46 21 31 25 47 22 85 -4 62 19 170 45 214 25 40 36 43 46 12z m1680 10
c11 -18 17 -73 18 -163 1 -77 0 -80 -27 -93 -29 -14 -280 -72 -312 -72 -18 0
-17 2 4 13 35 17 36 33 4 45 -33 12 -73 45 -73 61 0 6 1 11 3 12 1 0 23 3 48
5 41 5 46 3 57 -21 6 -14 28 -33 47 -42 34 -16 36 -16 63 3 38 28 101 160 92
193 -9 34 15 71 46 71 12 0 26 -5 30 -12z m-136 -74 c-21 -38 -65 -67 -78 -51
-15 19 3 54 40 77 40 24 58 12 38 -26z m-1240 0 c33 -22 38 -29 29 -45 -12
-23 -42 -25 -59 -4 -7 8 -10 15 -7 15 3 0 2 14 -3 30 -5 17 -7 30 -4 30 2 0
22 -12 44 -26z m1008 -39 c5 -42 -10 -49 -51 -23 -40 26 -42 40 -6 49 40 10
54 4 57 -26z m-140 -47 c-3 -32 -4 -33 -43 -30 -33 3 -45 -2 -64 -22 -25 -27
-51 -34 -51 -16 0 16 47 60 64 60 9 0 30 9 48 20 44 27 50 25 46 -12z m-294
-89 c15 -12 25 -23 23 -26 -9 -8 -78 27 -72 37 9 15 19 12 49 -11z m216 -44
c0 -21 -17 -18 -30 4 -15 28 -13 33 10 21 11 -6 20 -17 20 -25z m-5227 -8 c-3
-5 -9 -3 -14 4 -4 7 -5 17 -2 22 3 5 9 3 14 -4 4 -7 5 -17 2 -22z m3527 -555
c0 -5 -9 -17 -20 -27 -20 -18 -25 -11 -14 19 6 17 34 23 34 8z m-100 -183 c0
-11 -4 -17 -10 -14 -5 3 -10 13 -10 21 0 8 5 14 10 14 6 0 10 -9 10 -21z
m-2641 -826 l24 -16 -24 -12 c-13 -7 -35 -12 -49 -10 -14 1 -31 3 -37 4 -19 2
-16 28 5 40 25 15 54 13 81 -6z m-225 -115 c22 -31 20 -48 -6 -47 -13 1 -65
-2 -115 -6 -62 -5 -93 -5 -93 2 0 16 21 30 55 39 17 4 39 13 50 20 32 22 91
18 109 -8z m2600 -439 c-18 -19 -34 -17 -34 5 0 8 11 14 25 14 25 0 25 -1 9
-19z"/>
<path d="M6990 4111 c0 -64 61 -106 98 -69 31 31 -7 82 -75 103 -21 6 -23 3
-23 -34z"/>
<path d="M3263 6438 c-34 -17 -43 -28 -52 -64 -13 -51 -28 -67 -95 -101 -72
-36 -116 -71 -116 -92 0 -10 -7 -24 -15 -31 -30 -25 -16 -32 48 -25 34 4 70 9
81 11 38 7 263 -52 300 -79 21 -15 37 -88 25 -110 -6 -10 1 -28 22 -56 28 -40
49 -53 106 -67 22 -6 24 -4 18 15 -3 11 -1 64 6 117 17 131 34 138 173 75 36
-17 96 -45 133 -62 85 -39 127 -53 239 -79 73 -17 103 -30 145 -61 30 -23 85
-56 123 -76 37 -19 79 -45 92 -58 19 -19 38 -24 101 -30 79 -6 127 -12 173
-20 56 -10 128 -18 180 -19 30 -1 69 -10 87 -19 38 -20 102 -23 104 -4 1 6 2
25 3 40 0 15 8 32 16 37 12 8 12 10 -4 10 -11 0 -29 -9 -40 -19 -12 -11 -41
-23 -66 -26 -40 -5 -48 -3 -70 19 -13 15 -28 26 -33 26 -21 0 -140 62 -162 84
-13 13 -62 51 -109 85 -94 68 -240 127 -392 160 -78 17 -82 17 -104 -1 -30
-24 -63 -23 -108 6 -21 13 -53 26 -72 30 -19 4 -60 17 -90 30 -30 13 -86 37
-125 53 -38 16 -71 36 -73 44 -3 16 46 69 118 129 48 39 69 75 54 90 -10 10
-120 -58 -194 -119 -46 -38 -74 -46 -94 -26 -26 27 -6 58 48 73 26 8 46 16 43
18 -4 5 -14 7 -87 18 -78 13 -97 18 -139 43 -35 21 -128 53 -151 53 -3 0 -24
-10 -47 -22z"/>
<path d="M2923 6074 c-56 -24 -41 -37 38 -32 86 7 108 22 53 37 -47 13 -51 13
-91 -5z"/>
<path d="M3485 5730 c-3 -5 -2 -10 4 -10 5 0 13 5 16 10 3 6 2 10 -4 10 -5 0
-13 -4 -16 -10z"/>
<path d="M3022 5594 c-7 -8 -17 -12 -23 -9 -5 4 -9 2 -9 -4 0 -5 -3 -16 -6
-25 -10 -26 20 -19 49 12 15 16 24 31 20 35 -9 10 -16 8 -31 -9z"/>
<path d="M8566 5281 c-7 -10 3 -41 13 -41 3 0 16 -3 29 -7 21 -5 23 -3 20 23
-2 23 -9 30 -30 32 -14 2 -29 -1 -32 -7z"/>
<path d="M7490 5188 c-13 -5 -28 -14 -31 -20 -8 -13 6 -56 27 -79 8 -9 12 -24
8 -33 -4 -10 -1 -16 7 -17 15 -1 31 -4 67 -15 27 -8 30 10 4 28 -21 15 -36 60
-33 99 3 34 -17 49 -49 37z"/>
<path d="M8510 5170 c0 -5 5 -10 10 -10 6 0 10 5 10 10 0 6 -4 10 -10 10 -5 0
-10 -4 -10 -10z"/>
<path d="M7921 5123 c-12 -8 -21 -20 -21 -28 0 -7 -10 -26 -23 -42 -12 -15
-28 -41 -35 -56 -12 -29 -16 -67 -7 -67 3 0 29 23 56 51 50 51 51 51 88 41 20
-6 45 -18 56 -26 17 -12 23 -12 52 2 55 26 45 44 -29 57 -29 4 -44 15 -63 42
-28 42 -44 47 -74 26z"/>
<path d="M8560 5132 c0 -18 25 -28 55 -22 21 4 26 8 17 14 -20 12 -72 18 -72
8z"/>
<path d="M8410 5090 c0 -5 5 -10 10 -10 6 0 10 5 10 10 0 6 -4 10 -10 10 -5 0
-10 -4 -10 -10z"/>
<path d="M7390 5046 c0 -14 5 -28 11 -31 14 -9 18 -4 21 25 2 16 -3 25 -14 28
-13 3 -18 -3 -18 -22z"/>
<path d="M8360 5021 c-5 -11 -10 -37 -10 -59 0 -32 5 -41 25 -50 21 -10 27 -8
40 11 8 12 15 38 15 58 0 29 -5 38 -25 47 -33 15 -32 15 -45 -7z"/>
<path d="M8526 5023 c-2 -10 -7 -48 -11 -85 -5 -53 -3 -68 7 -68 20 1 43 22
61 57 9 17 21 34 27 38 5 3 30 -15 56 -40 25 -25 57 -53 71 -62 24 -16 26 -16
39 2 8 10 14 22 14 26 0 14 -66 73 -124 111 -67 43 -131 52 -140 21z"/>
<path d="M7295 4999 c-10 -15 1 -23 20 -15 9 3 13 10 10 16 -8 13 -22 13 -30
-1z"/>
<path d="M7423 4967 c6 -46 10 -52 25 -34 8 10 6 20 -9 42 l-20 30 4 -38z"/>
<path d="M7499 4964 c-12 -15 -11 -16 11 -9 35 10 49 25 23 25 -11 0 -27 -7
-34 -16z"/>
<path d="M7330 4949 c-14 -26 -5 -69 15 -69 16 0 35 30 35 54 0 8 -9 20 -20
26 -15 8 -21 6 -30 -11z"/>
<path d="M8108 4958 c9 -9 15 -9 24 0 9 9 7 12 -12 12 -19 0 -21 -3 -12 -12z"/>
<path d="M7918 4854 c-29 -15 -37 -39 -16 -46 7 -3 13 -15 13 -28 0 -19 8 -26
42 -36 47 -14 66 -5 77 33 5 16 1 25 -14 33 -14 8 -20 18 -17 30 8 32 -39 40
-85 14z"/>
<path d="M7710 4810 c-14 -27 -5 -39 15 -19 9 9 11 19 6 28 -7 11 -11 9 -21
-9z"/>
<path d="M7362 4807 c-14 -16 3 -36 35 -41 20 -4 98 32 90 41 -3 2 -30 7 -59
10 -40 4 -57 1 -66 -10z"/>
<path d="M7562 4798 c-18 -18 -15 -38 6 -38 27 0 46 16 39 34 -8 19 -28 21
-45 4z"/>
<path d="M8390 4800 c-9 -6 -10 -10 -3 -10 6 0 15 5 18 10 8 12 4 12 -15 0z"/>
<path d="M8580 4779 c0 -5 5 -7 10 -4 6 3 10 8 10 11 0 2 -4 4 -10 4 -5 0 -10
-5 -10 -11z"/>
<path d="M8703 4773 c-3 -10 -8 -21 -10 -26 -2 -4 7 -2 21 4 32 15 42 39 15
39 -11 0 -22 -8 -26 -17z"/>
<path d="M7786 4742 c-12 -11 -6 -42 8 -42 17 0 41 28 32 37 -9 9 -33 12 -40
5z"/>
<path d="M8185 4710 c-3 -4 2 -11 11 -14 24 -9 36 -7 32 6 -5 13 -36 20 -43 8z"/>
<path d="M8296 4704 c-21 -21 -4 -54 28 -54 23 0 52 42 41 61 -10 14 -52 10
-69 -7z"/>
<path d="M8466 4678 c-9 -12 -16 -33 -16 -45 0 -18 6 -23 25 -23 42 0 61 61
26 80 -16 8 -23 6 -35 -12z"/>
<path d="M7117 4662 c-15 -15 -27 -36 -27 -46 0 -27 86 -15 118 18 l25 24 -31
16 c-43 22 -54 20 -85 -12z"/>
<path d="M7340 4605 c0 -25 14 -34 24 -16 8 12 -3 41 -15 41 -5 0 -9 -11 -9
-25z"/>
<path d="M7227 4582 c-23 -25 -21 -37 7 -50 31 -14 51 6 42 43 -8 30 -26 32
-49 7z"/>
<path d="M7530 4385 c-10 -12 -10 -15 3 -15 19 0 31 16 18 24 -5 3 -14 -1 -21
-9z"/>
<path d="M8820 3395 c0 -8 4 -15 10 -15 5 0 7 7 4 15 -4 8 -8 15 -10 15 -2 0
-4 -7 -4 -15z"/>
<path d="M8772 3100 c0 -14 2 -19 5 -12 2 6 2 18 0 25 -3 6 -5 1 -5 -13z"/>
<path d="M6323 1762 c-6 -4 -13 -17 -17 -28 -10 -33 -114 -59 -281 -70 -74 -5
-97 -3 -123 10 -32 17 -52 16 -142 -6 -52 -12 -75 -28 -41 -28 33 0 16 -18
-24 -26 -19 -3 -35 -10 -35 -15 0 -15 27 -21 47 -11 10 5 63 13 118 16 141 10
157 12 197 25 20 7 89 14 154 16 174 7 174 6 174 65 0 50 -7 64 -27 52z"/>
<path d="M8875 1728 c-33 -5 -69 -11 -81 -14 -13 -2 -31 -24 -49 -56 -15 -29
-40 -63 -54 -74 -24 -21 -25 -23 -11 -49 29 -54 56 -60 280 -71 63 -3 135 -9
159 -15 24 -5 46 -7 50 -4 6 6 12 103 13 218 1 26 -4 53 -11 60 -15 15 -211
18 -296 5z"/>
<path d="M5403 1643 c-20 -7 -15 -31 7 -43 24 -13 160 -3 160 11 0 10 -10 12
-62 9 -20 -1 -49 5 -65 13 -15 8 -34 12 -40 10z"/>
</g>
</svg>
